<?xml version="1.0" encoding="UTF-8" standalone="no"?>
<!DOCTYPE svg PUBLIC "-//W3C//DTD SVG 1.1//EN" "http://www.w3.org/Graphics/SVG/1.1/DTD/svg11.dtd">
<svg version="1.1" xmlns="http://www.w3.org/2000/svg" xmlns:xlink="http://www.w3.org/1999/xlink" preserveAspectRatio="xMidYMid meet" viewBox="170.37593984962416 64.3685450324372 216.28808723937482 75.93984962406017" width="404.44" height="142"><defs><path d="M170.38 64.37L386.66 64.37L386.66 140.31L170.38 140.31L170.38 64.37Z" id="bOyYJ2gN4"></path><path d="M243.42 94.63C243.42 99.57 239.13 103.58 233.84 103.58C228.56 103.58 224.27 99.57 224.27 94.63C224.27 89.7 228.56 85.69 233.84 85.69C239.13 85.69 243.42 89.7 243.42 94.63Z" id="b4mgZYSQ9"></path><path d="M174.8 73.63L383.66 73.63L383.66 82.85L174.8 82.85L174.8 73.63Z" id="bAhxCL0hq"></path><path d="M188.28 85.69L197.28 85.69L197.28 130.05L188.28 130.05L188.28 85.69Z" id="btjCMAtb0"></path><path d="M228.7 91.36C228.7 91.36 227.43 91.36 225.87 91.36C224.3 91.36 223.03 91.36 223.03 91.36C223.03 91.36 224.3 91.36 225.87 91.36C227.43 91.36 228.14 91.36 228.7 91.36Z" id="f2o12w4TVO"></path><path d="M240.4 94.63C240.4 99.57 236.11 103.58 230.83 103.58C225.55 103.58 221.26 99.57 221.26 94.63C221.26 89.7 225.55 85.69 230.83 85.69C236.11 85.69 240.4 89.7 240.4 94.63Z" id="bapWaMtQV"></path><path d="M228.7 122.57L228.7 122.57L228.7 134.62L228.7 134.62L228.7 122.57Z" id="d4JISIETYz"></path><path d="M207.07 85.69L216.07 85.69L216.07 130.05L207.07 130.05L207.07 85.69Z" id="c1khNxgGS"></path><path d="M226.75 126.63L243.42 126.63L226.75 103.58L226.75 126.63Z" id="c56p3rPXvr"></path><path d="M225.87 128.6L242.53 128.6L225.87 105.55L225.87 128.6Z" id="cCF6KBBYQ"></path><path d="M285 85.69L294 85.69L294 126.94L285 126.94L285 85.69Z" id="a2CYPGA2B"></path><path d="M303.86 85.33L312.86 85.33L312.86 126.58L303.86 126.58L303.86 85.33Z" id="aD89MczCx"></path><path d="M328.56 85.33L337.56 85.33L337.56 126.58L328.56 126.58L328.56 85.33Z" id="f17SUP8V05"></path><path d="M342.25 90.99L348.89 82.85L364.35 105.53L357.71 113.67L342.25 90.99Z" id="a2dfOMhS5D"></path><path d="M318.04 100.4L327.04 100.4L327.04 109.4L318.04 109.4L318.04 100.4Z" id="c2XgcjACVp"></path><path d="M361.51 126.97L353.3 123.29L362.7 85.69L370.91 89.37L361.51 126.97Z" id="ar7bqRP2S"></path><path d="M342.25 93.12L348.89 84.99L364.35 107.67L357.71 115.8L342.25 93.12Z" id="d5sj8dzUyx"></path><path d="M359.78 126.18L351.57 122.49L360.97 84.89L369.18 88.58L359.78 126.18Z" id="c23EMRwBW0"></path><path d="M174.8 70.63L383.66 70.63L383.66 73.63L174.8 73.63L174.8 70.63Z" id="b1RLx9NkkZ"></path><path d="M200.28 85.69L197.28 85.69L197.28 130.05L200.28 130.05L200.28 85.69Z" id="haMWtoFnW"></path><path d="M216.07 85.69L219.07 85.69L219.07 130.05L216.07 130.05L216.07 85.69Z" id="c16qBh6hKD"></path><path d="M294 85.69L297 85.69L297 126.94L294 126.94L294 85.69Z" id="b1jgQ9Zuz4"></path><path d="M312.86 85.32L315.86 85.32L315.86 126.57L312.86 126.57L312.86 85.32Z" id="auqWI2OI0"></path><path d="M337.56 85.33L340.56 85.33L340.56 126.58L337.56 126.58L337.56 85.33Z" id="cgrQTUpyj"></path><path d="M252.05 86.16L261.05 86.16L261.05 118.52L252.05 118.52L252.05 86.16Z" id="aageB6zs8"></path><path d="M318.04 109.56L327.04 109.56L327.04 112.56L318.04 112.56L318.04 109.56Z" id="cwSeBBDJS"></path><path d="M270.5 86.59L279.5 86.59L279.5 127.83L270.5 127.83L270.5 86.59Z" id="a2DF6WQ5hX"></path><path d="M249.55 86.59L258.55 86.59L258.55 118.95L249.55 118.95L249.55 86.59Z" id="a20JpQCg9w"></path><path d="M249.55 118.95L277 118.95L277 127.95L249.55 127.95L249.55 118.95Z" id="cgSRc9T4H"></path><path d="M268 86.59L277 86.59L277 118.95L268 118.95L268 86.59Z" id="d2OGeNC6H"></path><path d="M249.55 117.07L277 117.07L277 126.29L249.55 126.29L249.55 117.07Z" id="c9n5Jm4CDE"></path></defs><g><g><g><use xlink:href="#bOyYJ2gN4" opacity="1" fill="#243665" fill-opacity="1"></use></g><g><use xlink:href="#b4mgZYSQ9" opacity="1" fill="#ffffff" fill-opacity="1"></use></g><g><use xlink:href="#bAhxCL0hq" opacity="1" fill="#8bd8bd" fill-opacity="1"></use></g><g><use xlink:href="#btjCMAtb0" opacity="1" fill="#8bd8bd" fill-opacity="1"></use></g><g><use xlink:href="#f2o12w4TVO" opacity="1" fill="#098a3a" fill-opacity="1"></use></g><g><use xlink:href="#bapWaMtQV" opacity="1" fill="#8bd8bd" fill-opacity="1"></use></g><g><use xlink:href="#d4JISIETYz" opacity="1" fill="#230e5f" fill-opacity="1"></use></g><g><use xlink:href="#c1khNxgGS" opacity="1" fill="#8bd8bd" fill-opacity="1"></use></g><g><use xlink:href="#c56p3rPXvr" opacity="1" fill="#ffffff" fill-opacity="1"></use><g><use xlink:href="#c56p3rPXvr" opacity="1" fill-opacity="0" stroke="#000000" stroke-width="0" stroke-opacity="1"></use></g></g><g><use xlink:href="#cCF6KBBYQ" opacity="1" fill="#8bd8bd" fill-opacity="1"></use><g><use xlink:href="#cCF6KBBYQ" opacity="1" fill-opacity="0" stroke="#000000" stroke-width="0" stroke-opacity="1"></use></g></g><g><use xlink:href="#a2CYPGA2B" opacity="1" fill="#8bd8bd" fill-opacity="1"></use></g><g><use xlink:href="#aD89MczCx" opacity="1" fill="#8bd8bd" fill-opacity="1"></use></g><g><use xlink:href="#f17SUP8V05" opacity="1" fill="#8bd8bd" fill-opacity="1"></use></g><g><use xlink:href="#a2dfOMhS5D" opacity="1" fill="#fefefe" fill-opacity="1"></use></g><g><use xlink:href="#c2XgcjACVp" opacity="1" fill="#8bd8bd" fill-opacity="1"></use></g><g><use xlink:href="#ar7bqRP2S" opacity="1" fill="#fefefe" fill-opacity="1"></use></g><g><use xlink:href="#d5sj8dzUyx" opacity="1" fill="#8bd8bd" fill-opacity="1"></use></g><g><use xlink:href="#c23EMRwBW0" opacity="1" fill="#8bd8bd" fill-opacity="1"></use></g><g><use xlink:href="#b1RLx9NkkZ" opacity="1" fill="#fefefe" fill-opacity="1"></use></g><g><use xlink:href="#haMWtoFnW" opacity="1" fill="#ffffff" fill-opacity="1"></use></g><g><use xlink:href="#c16qBh6hKD" opacity="1" fill="#ffffff" fill-opacity="1"></use></g><g><use xlink:href="#b1jgQ9Zuz4" opacity="1" fill="#fefefe" fill-opacity="1"></use></g><g><use xlink:href="#auqWI2OI0" opacity="1" fill="#fefefe" fill-opacity="1"></use></g><g><use xlink:href="#cgrQTUpyj" opacity="1" fill="#fefefe" fill-opacity="1"></use></g><g><use xlink:href="#aageB6zs8" opacity="1" fill="#fefefe" fill-opacity="1"></use></g><g><use xlink:href="#cwSeBBDJS" opacity="1" fill="#fefefe" fill-opacity="1"></use></g><g><use xlink:href="#a2DF6WQ5hX" opacity="1" fill="#ffffff" fill-opacity="1"></use></g><g><use xlink:href="#a20JpQCg9w" opacity="1" fill="#8bd8bd" fill-opacity="1"></use></g><g><use xlink:href="#cgSRc9T4H" opacity="1" fill="#ffffff" fill-opacity="1"></use></g><g><use xlink:href="#d2OGeNC6H" opacity="1" fill="#8bd8bd" fill-opacity="1"></use></g><g><use xlink:href="#c9n5Jm4CDE" opacity="1" fill="#8bd8bd" fill-opacity="1"></use></g></g></g></svg>
