<?xml version="1.0" encoding="UTF-8"?>
<svg viewBox="317.5 75.494 18.521 12.435" xmlns="http://www.w3.org/2000/svg">
  <g transform="matrix(.0031886 0 0 .0031886 317.5 75.494)">
    <rect width="5808.5" height="3900" fill="#ed5565" stroke-width=".88537"/>
    <path d="m0 450h5808.5m0 600h-5808.5m0 600h5808.5m0 600h-5808.5m0 600h5808.5m0 600h-5808.5" stroke="#f5f7fa" stroke-width="265.61"/>
    <rect width="2964" height="2117.2" fill="#4758a9" stroke-width="1.0041"/>
    <g fill="#fff">
      <path d="m247 90 70.534 217.08-184.66-134.16h228.25l-184.66 134.16z"/>
      <path transform="translate(0 420)" d="m247 90 70.534 217.08-184.66-134.16h228.25l-184.66 134.16z"/>
      <path transform="translate(0 840)" d="m247 90 70.534 217.08-184.66-134.16h228.25l-184.66 134.16z"/>
      <path transform="translate(0 1260)" d="m247 90 70.534 217.08-184.66-134.16h228.25l-184.66 134.16z"/>
      <path transform="translate(0 1680)" d="m247 90 70.534 217.08-184.66-134.16h228.25l-184.66 134.16z"/>
      <g transform="translate(247 210)">
        <path d="m247 90 70.534 217.08-184.66-134.16h228.25l-184.66 134.16z"/>
        <path transform="translate(0 420)" d="m247 90 70.534 217.08-184.66-134.16h228.25l-184.66 134.16z"/>
        <path transform="translate(0 840)" d="m247 90 70.534 217.08-184.66-134.16h228.25l-184.66 134.16z"/>
        <path transform="translate(0 1260)" d="m247 90 70.534 217.08-184.66-134.16h228.25l-184.66 134.16z"/>
      </g>
      <g transform="translate(494)">
        <path d="m247 90 70.534 217.08-184.66-134.16h228.25l-184.66 134.16z"/>
        <path transform="translate(0 420)" d="m247 90 70.534 217.08-184.66-134.16h228.25l-184.66 134.16z"/>
        <path transform="translate(0 840)" d="m247 90 70.534 217.08-184.66-134.16h228.25l-184.66 134.16z"/>
        <path transform="translate(0 1260)" d="m247 90 70.534 217.08-184.66-134.16h228.25l-184.66 134.16z"/>
        <path transform="translate(0 1680)" d="m247 90 70.534 217.08-184.66-134.16h228.25l-184.66 134.16z"/>
        <g transform="translate(247 210)">
          <path d="m247 90 70.534 217.08-184.66-134.16h228.25l-184.66 134.16z"/>
          <path transform="translate(0 420)" d="m247 90 70.534 217.08-184.66-134.16h228.25l-184.66 134.16z"/>
          <path transform="translate(0 840)" d="m247 90 70.534 217.08-184.66-134.16h228.25l-184.66 134.16z"/>
          <path transform="translate(0 1260)" d="m247 90 70.534 217.08-184.66-134.16h228.25l-184.66 134.16z"/>
        </g>
      </g>
      <g transform="translate(988)">
        <path d="m247 90 70.534 217.08-184.66-134.16h228.25l-184.66 134.16z"/>
        <path transform="translate(0 420)" d="m247 90 70.534 217.08-184.66-134.16h228.25l-184.66 134.16z"/>
        <path transform="translate(0 840)" d="m247 90 70.534 217.08-184.66-134.16h228.25l-184.66 134.16z"/>
        <path transform="translate(0 1260)" d="m247 90 70.534 217.08-184.66-134.16h228.25l-184.66 134.16z"/>
        <path transform="translate(0 1680)" d="m247 90 70.534 217.08-184.66-134.16h228.25l-184.66 134.16z"/>
        <g transform="translate(247 210)">
          <path d="m247 90 70.534 217.08-184.66-134.16h228.25l-184.66 134.16z"/>
          <path transform="translate(0 420)" d="m247 90 70.534 217.08-184.66-134.16h228.25l-184.66 134.16z"/>
          <path transform="translate(0 840)" d="m247 90 70.534 217.08-184.66-134.16h228.25l-184.66 134.16z"/>
          <path transform="translate(0 1260)" d="m247 90 70.534 217.08-184.66-134.16h228.25l-184.66 134.16z"/>
        </g>
        <g transform="translate(494)">
          <path d="m247 90 70.534 217.08-184.66-134.16h228.25l-184.66 134.16z"/>
          <path transform="translate(0 420)" d="m247 90 70.534 217.08-184.66-134.16h228.25l-184.66 134.16z"/>
          <path transform="translate(0 840)" d="m247 90 70.534 217.08-184.66-134.16h228.25l-184.66 134.16z"/>
          <path transform="translate(0 1260)" d="m247 90 70.534 217.08-184.66-134.16h228.25l-184.66 134.16z"/>
          <path transform="translate(0 1680)" d="m247 90 70.534 217.08-184.66-134.16h228.25l-184.66 134.16z"/>
          <g transform="translate(247 210)">
            <path d="m247 90 70.534 217.08-184.66-134.16h228.25l-184.66 134.16z"/>
            <path transform="translate(0 420)" d="m247 90 70.534 217.08-184.66-134.16h228.25l-184.66 134.16z"/>
            <path transform="translate(0 840)" d="m247 90 70.534 217.08-184.66-134.16h228.25l-184.66 134.16z"/>
            <path transform="translate(0 1260)" d="m247 90 70.534 217.08-184.66-134.16h228.25l-184.66 134.16z"/>
          </g>
        </g>
      </g>
      <g transform="translate(1976)">
        <path d="m247 90 70.534 217.08-184.66-134.16h228.25l-184.66 134.16z"/>
        <path transform="translate(0 420)" d="m247 90 70.534 217.08-184.66-134.16h228.25l-184.66 134.16z"/>
        <path transform="translate(0 840)" d="m247 90 70.534 217.08-184.66-134.16h228.25l-184.66 134.16z"/>
        <path transform="translate(0 1260)" d="m247 90 70.534 217.08-184.66-134.16h228.25l-184.66 134.16z"/>
        <path transform="translate(0 1680)" d="m247 90 70.534 217.08-184.66-134.16h228.25l-184.66 134.16z"/>
        <g transform="translate(247 210)">
          <path d="m247 90 70.534 217.08-184.66-134.16h228.25l-184.66 134.16z"/>
          <path transform="translate(0 420)" d="m247 90 70.534 217.08-184.66-134.16h228.25l-184.66 134.16z"/>
          <path transform="translate(0 840)" d="m247 90 70.534 217.08-184.66-134.16h228.25l-184.66 134.16z"/>
          <path transform="translate(0 1260)" d="m247 90 70.534 217.08-184.66-134.16h228.25l-184.66 134.16z"/>
        </g>
      </g>
      <g transform="translate(2470)">
        <path d="m247 90 70.534 217.08-184.66-134.16h228.25l-184.66 134.16z"/>
        <path transform="translate(0 420)" d="m247 90 70.534 217.08-184.66-134.16h228.25l-184.66 134.16z"/>
        <path transform="translate(0 840)" d="m247 90 70.534 217.08-184.66-134.16h228.25l-184.66 134.16z"/>
        <path transform="translate(0 1260)" d="m247 90 70.534 217.08-184.66-134.16h228.25l-184.66 134.16z"/>
        <path transform="translate(0 1680)" d="m247 90 70.534 217.08-184.66-134.16h228.25l-184.66 134.16z"/>
      </g>
    </g>
  </g>
</svg>
