<?xml version="1.0" encoding="UTF-8"?>
<svg viewBox="211.67 45.332 18.521 12.435" xmlns="http://www.w3.org/2000/svg">
  <g transform="matrix(.26458 0 0 .26458 -187.26 -13.936)">
    <rect x="1507.7" y="224" width="70" height="47" fill="#f5f7fa"/>
    <g transform="matrix(.5387 0 0 .5387 1517.2 226.52)">
      <path d="m-15 37.57h60l-60-37.57v80h60l-60-60z" fill="#ed5565" stroke="#4758a9" stroke-width="5.165"/>
      <path d="m-15 37.57h60l-60-37.57v80h60l-60-60z" fill="#ed5565"/>
      <g fill="#f5f7fa">
        <path d="m0 35.43c6.6 0 11.95-5.35 11.95-11.95-1.05 2.67-2.95 4.88-5.37 6.32l-1.02-0.76 2-1.5-2.42-0.62 1.28-2.17-2.5 0.36 0.37-2.48-2.17 1.3-0.62-2.45-1.5 2-1.5-2-0.63 2.44-2.16-1.28 0.37 2.5-2.5-0.37 1.3 2.17-2.44 0.62 2 1.5-1 0.77c-2.37-1.4-4.3-3.56-5.38-6.32 0 6.6 5.35 11.95 11.95 11.95z"/>
        <path d="m-5.76 53.03-5.36-0.66 3.25 4.3-4.97 2.12 4.97 2.1-3.25 4.3 5.36-0.66-0.66 5.37 4.3-3.25 2.12 4.98 2.1-4.98 4.32 3.26-0.66-5.36 5.36 0.67-3.25-4.3 4.97-2.1-4.97-2.12 3.25-4.3-5.36 0.65 0.66-5.36-4.3 3.25-2.12-4.99-2.1 4.97-4.32-3.25z"/>
      </g>
    </g>
  </g>
</svg>
