<?xml version="1.0" encoding="UTF-8" standalone="no"?>
<!DOCTYPE svg PUBLIC "-//W3C//DTD SVG 1.1//EN" "http://www.w3.org/Graphics/SVG/1.1/DTD/svg11.dtd">
<svg version="1.1" xmlns="http://www.w3.org/2000/svg" xmlns:xlink="http://www.w3.org/1999/xlink" preserveAspectRatio="xMidYMid meet" viewBox="165.0274622727031 63.60902255639096 70.76201141150747 69.51154481949555" width="149.64" height="147"><defs><path d="M235.79 63.61L235.79 133.12L165.03 133.12L165.03 63.61L165.03 63.61L235.79 63.61Z" id="gRBfsYk6k"></path><path d="M233.64 93.13C233.64 98.07 229.35 102.08 224.07 102.08C218.79 102.08 214.5 98.07 214.5 93.13C214.5 88.19 218.79 84.18 224.07 84.18C229.35 84.18 233.64 88.19 233.64 93.13Z" id="akfSKCGAz"></path><path d="M165.03 69.89L233.64 69.89L233.64 81.95L165.03 81.95L165.03 69.89Z" id="d3QxXjCBsx"></path><path d="M178.5 84.18L187.5 84.18L187.5 128.54L178.5 128.54L178.5 84.18Z" id="aCeTiinVs"></path><path d="M218.93 89.86C218.93 89.86 217.66 89.86 216.09 89.86C214.53 89.86 213.25 89.86 213.25 89.86C213.25 89.86 214.53 89.86 216.09 89.86C217.66 89.86 218.36 89.86 218.93 89.86Z" id="f1ERzsQ5N0"></path><path d="M218.93 121.06L218.93 121.06L218.93 133.12L218.93 133.12L218.93 121.06Z" id="a3BChVfwr"></path><path d="M230.63 93.13C230.63 98.07 226.34 102.08 221.06 102.08C215.77 102.08 211.48 98.07 211.48 93.13C211.48 88.19 215.77 84.18 221.06 84.18C226.34 84.18 230.63 88.19 230.63 93.13Z" id="eC1RvKmYN"></path><path d="M197.3 84.18L206.3 84.18L206.3 128.54L197.3 128.54L197.3 84.18Z" id="av8aXWLWG"></path><path d="M216.98 126.01L233.64 126.01L216.98 102.97L216.98 126.01Z" id="b4pYSTcZsx"></path><path d="M216.09 127.09L232.76 127.09L216.09 104.04L216.09 127.09Z" id="ahajqzxzM"></path><path d="M165.03 78.19L233.64 78.19L233.64 81.95L165.03 81.95L165.03 78.19Z" id="a6P4wyG1I"></path><path d="M190.5 84.18L187.5 84.18L187.5 128.54L190.5 128.54L190.5 84.18Z" id="b368ozHd32"></path><path d="M206.3 84.18L209.3 84.18L209.3 128.54L206.3 128.54L206.3 84.18Z" id="c1j8uPqAdV"></path></defs><g><g><g><use xlink:href="#gRBfsYk6k" opacity="1" fill="#2673b8" fill-opacity="1"></use></g><g><use xlink:href="#akfSKCGAz" opacity="1" fill="#fefefe" fill-opacity="1"></use></g><g><use xlink:href="#d3QxXjCBsx" opacity="1" fill="#65cdbf" fill-opacity="1"></use></g><g><use xlink:href="#aCeTiinVs" opacity="1" fill="#65cdbf" fill-opacity="1"></use></g><g><use xlink:href="#f1ERzsQ5N0" opacity="1" fill="#098a3a" fill-opacity="1"></use></g><g><use xlink:href="#a3BChVfwr" opacity="1" fill="#230e5f" fill-opacity="1"></use></g><g><use xlink:href="#eC1RvKmYN" opacity="1" fill="#65cdbf" fill-opacity="1"></use></g><g><use xlink:href="#av8aXWLWG" opacity="1" fill="#65cdbf" fill-opacity="1"></use></g><g><use xlink:href="#b4pYSTcZsx" opacity="1" fill="#fefefe" fill-opacity="1"></use><g><use xlink:href="#b4pYSTcZsx" opacity="1" fill-opacity="0" stroke="#000000" stroke-width="0" stroke-opacity="1"></use></g></g><g><use xlink:href="#ahajqzxzM" opacity="1" fill="#65cdbf" fill-opacity="1"></use><g><use xlink:href="#ahajqzxzM" opacity="1" fill-opacity="0" stroke="#000000" stroke-width="0" stroke-opacity="1"></use></g></g><g><use xlink:href="#a6P4wyG1I" opacity="1" fill="#fefefe" fill-opacity="1"></use></g><g><use xlink:href="#b368ozHd32" opacity="1" fill="#fefefe" fill-opacity="1"></use></g><g><use xlink:href="#c1j8uPqAdV" opacity="1" fill="#fefefe" fill-opacity="1"></use></g></g></g></svg>
